<svg xmlns="http://www.w3.org/2000/svg" data-name="Layer 1" viewBox="0 0 512 512"><path fill="#71d0ff" d="M439,107.75H349.12V63.07a35.51,35.51,0,0,0-35.47-35.46H195a32.18,32.18,0,0,0-32.15,32.14v48H68.49A52.55,52.55,0,0,0,16,160.24V442.62a5,5,0,0,0,5,5H491a5,5,0,0,0,5-5V164.71A57,57,0,0,0,439,107.75Zm-266.16-48A22.17,22.17,0,0,1,195,37.61H313.65a25.5,25.5,0,0,1,25.47,25.46v44.68H172.88Z"/><circle cx="256" cy="277.68" r="127.03" fill="#fed072"/><path fill="#f17170" d="M332.59,252.26H281.43V201.09a5,5,0,0,0-5-5H235.57a5,5,0,0,0-5,5v51.17H179.41a5,5,0,0,0-5,5v40.85a5,5,0,0,0,5,5h51.16v51.16a5,5,0,0,0,5,5h40.86a5,5,0,0,0,5-5V303.11h51.16a5,5,0,0,0,5-5V257.26A5,5,0,0,0,332.59,252.26Z"/></svg>